<?xml version="1.0" encoding="iso-8859-1"?>

<svg version="1.1" xmlns="http://www.w3.org/2000/svg" xmlns:xlink="http://www.w3.org/1999/xlink" x="0px" y="0px"
	 viewBox="0 0 64 64" style="enable-background:new 0 0 64 64;" xml:space="preserve">
<g id="&#x421;&#x43B;&#x43E;&#x439;_1">
	<path d="M32,6C17.641,6,6,17.641,6,32c0,14.359,11.641,26,26,26s26-11.641,26-26C58,17.641,46.359,6,32,6z M32.021,16
		C33.555,16,35,17.346,35,18.981C35,20.727,33.555,22,32.021,22C30.225,22,29,20.727,29,18.981C29,17.346,30.225,16,32.021,16z
		 M39,47h-5h-4h-5v-3l5-1V30h-4v-3l8-1v17l5,1V47z"/>
</g>
<g id="Email_Open">
</g>
<g id="Money">
</g>
</svg>